<svg width="23" height="23" viewBox="0 0 23 23" fill="none" xmlns="http://www.w3.org/2000/svg">
    <g clip-path="url(#clip0_67_72)">
        <path d="M15.0938 15.8125C19.4602 15.8125 23 12.2727 23 7.90625C23 3.53984 19.4602 0 15.0938 0C10.7273 0 7.1875 3.53984 7.1875 7.90625C7.1875 8.74629 7.31777 9.55937 7.56035 10.3186L0.314453 17.5645C0.112305 17.7666 0 18.0406 0 18.3281V21.9219C0 22.5193 0.480664 23 1.07812 23H4.67188C5.26934 23 5.75 22.5193 5.75 21.9219V20.125H7.54688C8.14434 20.125 8.625 19.6443 8.625 19.0469V17.25H10.4219C10.7094 17.25 10.9834 17.1377 11.1855 16.9355L12.6814 15.4396C13.4406 15.6822 14.2537 15.8125 15.0938 15.8125ZM16.8906 4.3125C17.3672 4.3125 17.8242 4.50181 18.1612 4.83879C18.4982 5.17577 18.6875 5.63281 18.6875 6.10938C18.6875 6.58594 18.4982 7.04298 18.1612 7.37996C17.8242 7.71694 17.3672 7.90625 16.8906 7.90625C16.4141 7.90625 15.957 7.71694 15.62 7.37996C15.2831 7.04298 15.0938 6.58594 15.0938 6.10938C15.0938 5.63281 15.2831 5.17577 15.62 4.83879C15.957 4.50181 16.4141 4.3125 16.8906 4.3125Z"
              fill="black" fill-opacity="0.5"/>
    </g>
    <defs>
        <clipPath id="clip0_67_72">
            <rect width="23" height="23" fill="white"/>
        </clipPath>
    </defs>
</svg>
