<svg width="20" height="23" viewBox="0 0 20 23" fill="none" xmlns="http://www.w3.org/2000/svg">
    <g clip-path="url(#clip0_67_74)">
        <path d="M10 11.5C11.5155 11.5 12.969 10.8942 14.0406 9.81586C15.1122 8.73753 15.7143 7.27499 15.7143 5.75C15.7143 4.22501 15.1122 2.76247 14.0406 1.68414C12.969 0.605802 11.5155 0 10 0C8.48448 0 7.03103 0.605802 5.95939 1.68414C4.88775 2.76247 4.28571 4.22501 4.28571 5.75C4.28571 7.27499 4.88775 8.73753 5.95939 9.81586C7.03103 10.8942 8.48448 11.5 10 11.5ZM7.95982 13.6562C3.5625 13.6562 0 17.241 0 21.6658C0 22.4025 0.59375 23 1.32589 23H18.6741C19.4062 23 20 22.4025 20 21.6658C20 17.241 16.4375 13.6562 12.0402 13.6562H7.95982Z"
              fill="black" fill-opacity="0.5"/>
    </g>
    <defs>
        <clipPath id="clip0_67_74">
            <rect width="20" height="23" fill="white"/>
        </clipPath>
    </defs>
</svg>
